<?xml version="1.0" standalone="no"?><!DOCTYPE svg PUBLIC "-//W3C//DTD SVG 1.1//EN" "http://www.w3.org/Graphics/SVG/1.1/DTD/svg11.dtd"><svg t="1764474493598" class="icon" viewBox="0 0 1024 1024" version="1.1" xmlns="http://www.w3.org/2000/svg" p-id="17090" xmlns:xlink="http://www.w3.org/1999/xlink" width="81" height="81"><path d="M860.28 163.72C788.28 89.35 663.96 67.3 512 65c-151.96 2.3-276.28 24.35-348.28 98.72C89.35 235.72 67.3 360.04 65 512c2.3 151.96 24.35 276.28 98.72 348.28 72 74.37 196.31 96.43 348.28 98.72 151.96-2.3 276.28-24.35 348.28-98.72 74.37-72 96.43-196.31 98.72-348.28-2.3-151.96-24.35-276.28-98.72-348.28z m-81.43 497.36c-28.95 72.53-81.01 123.12-154.42 150.03-125.24 45.91-257.25 8.72-337.25-98.46-48.21-64.58-67.8-137.7-58.08-217.46 9.87-80.97 47.78-147.24 111.7-198.37 23.82-19.05 50.14-33.72 78.52-44.68 16.56-6.4 34.33-0.74 43.74 13.19 9.26 13.72 8.15 31.86-3.59 44.17-3.93 4.12-9.26 7.41-14.55 9.63-82.91 34.76-132.64 96.28-144.39 185.29-8.9 67.45 10.95 127.9 55.76 179.59 28.79 33.22 64.47 55.97 106.87 67.45 33.04 8.95 66.55 8.92 100.17 2.48 43.57-8.33 81.43-27.2 111.53-60.17 39.31-43.06 55.98-93.48 46.87-151.43-5.87-37.34-25.09-67.24-54.17-91.02-13.38-10.94-27.41-20.84-44.32-25.71-2.72-0.79-5.49-1.43-9.56-2.49 4.55 17.37 8.79 33.43 12.96 49.51 3.39 13.07 6.55 26.21 10.03 39.26 11.94 44.78-14.37 101.67-61.49 126.74-59.73 31.78-133.35 7.64-163.4-54.24-31.93-65.73-17.02-161.42 65.04-208.47 13.76-7.89 28.7-13.73 44.12-21-2.9-11.37-5.87-23.69-9.2-35.91-17.34-63.61 32.69-118.39 86.64-124.59 38.82-4.46 72.14 9.2 101.05 34.08 14.87 12.8 14.9 35.04 1.61 50.41-11.84 13.69-32.85 15.45-48.07 3.8-10.27-7.86-21.24-13.9-34.06-16.76-21.01-4.69-46.05 15.4-36.74 39.43 4.58 11.83 6.83 24.59 9.91 36.98 0.97 3.92 2.82 5.4 6.99 5.86 88.66 9.76 147.57 59.91 181.39 139.42 24.2 56.97 21.19 116.32-1.61 173.44z" fill="#CD200C" p-id="17091"></path><path d="M547.34 453.69c-2.36-8.96-4.85-17.89-7.31-26.95-1.66 0.19-2.66 0.14-3.54 0.43-52.94 17.41-78.43 61.54-64.85 113.76 7.76 29.86 31 44.17 57.85 38.58 22.8-4.75 43.88-29.88 36.12-56.71-6.63-22.88-12.19-46.07-18.27-69.11z" fill="#CD200C" p-id="17092"></path><path d="M599.05 348.23c-4.17-0.46-6.02-1.94-6.99-5.86-3.07-12.39-5.32-25.15-9.91-36.98-9.31-24.03 15.72-44.11 36.74-39.43 12.83 2.86 23.79 8.9 34.06 16.76 15.22 11.64 36.24 9.89 48.07-3.8 13.29-15.37 13.26-37.62-1.61-50.41-28.91-24.88-62.23-38.55-101.05-34.08-53.95 6.2-103.98 60.98-86.64 124.59 3.33 12.22 6.3 24.55 9.2 35.91-15.42 7.27-30.36 13.11-44.12 21-82.05 47.04-96.97 142.73-65.04 208.47 30.06 61.88 103.68 86.02 163.4 54.24 47.12-25.07 73.43-81.96 61.49-126.74-3.48-13.05-6.65-26.18-10.03-39.26-4.16-16.08-8.41-32.14-12.96-49.51 4.07 1.06 6.84 1.71 9.56 2.49 16.91 4.88 30.94 14.77 44.32 25.71 29.07 23.78 48.3 53.68 54.17 91.02 9.11 57.95-7.56 108.37-46.87 151.43-30.1 32.97-67.96 51.84-111.53 60.17-33.62 6.43-67.13 6.46-100.17-2.48-42.4-11.48-78.08-34.23-106.87-67.45-44.8-51.69-64.66-112.14-55.76-179.59 11.75-89.01 61.48-150.53 144.39-185.29 5.3-2.22 10.63-5.52 14.55-9.63 11.74-12.31 12.86-30.45 3.59-44.17-9.41-13.94-27.18-19.59-43.74-13.19-28.38 10.96-54.7 25.63-78.52 44.68-63.92 51.13-101.82 117.39-111.7 198.37-9.73 79.77 9.87 152.88 58.08 217.46 80 107.18 212 144.37 337.25 98.46 73.41-26.91 125.47-77.5 154.42-150.03 22.8-57.13 25.81-116.47 1.59-173.43-33.8-79.52-92.71-129.68-181.37-139.43z m-69.57 231.28c-26.85 5.59-50.09-8.72-57.85-38.58-13.58-52.23 11.91-96.36 64.85-113.76 0.88-0.29 1.88-0.24 3.54-0.43 2.46 9.06 4.95 17.99 7.31 26.95 6.08 23.04 11.64 46.23 18.26 69.11 7.78 26.83-13.31 51.96-36.11 56.71z" fill="#FFFFFF" p-id="17093"></path></svg>